<mxfile host="app.diagrams.net" modified="2022-07-26T18:26:06.703Z" agent="5.0 (Windows)" etag="ztr0Z9jPujngpKBBWUvL" version="20.2.0" type="github" pages="3">
  <diagram id="0bSmpJjXT4QHC9Z0yinY" name="AnÃ¡lisis">
    <mxGraphModel dx="2031" dy="1131" grid="1" gridSize="10" guides="1" tooltips="1" connect="1" arrows="1" fold="1" page="1" pageScale="1" pageWidth="850" pageHeight="1100" math="0" shadow="0">
      <root>
        <mxCell id="0" />
        <mxCell id="1" parent="0" />
        <mxCell id="-irWWOzhihdXzqLK1Ein-37" value="" style="rounded=1;whiteSpace=wrap;html=1;fontSize=20;" vertex="1" parent="1">
          <mxGeometry x="80" y="1040" width="560" height="390" as="geometry" />
        </mxCell>
        <mxCell id="-irWWOzhihdXzqLK1Ein-1" value="&lt;font style=&quot;font-size: 30px;&quot;&gt;Domain: Vender comida.&lt;/font&gt;" style="text;html=1;strokeColor=none;fillColor=none;align=center;verticalAlign=middle;whiteSpace=wrap;rounded=0;" vertex="1" parent="1">
          <mxGeometry x="60" y="200" width="340" height="30" as="geometry" />
        </mxCell>
        <mxCell id="-irWWOzhihdXzqLK1Ein-2" value="" style="ellipse;whiteSpace=wrap;html=1;fontSize=30;dashed=1;" vertex="1" parent="1">
          <mxGeometry x="150" y="360" width="350" height="270" as="geometry" />
        </mxCell>
        <mxCell id="-irWWOzhihdXzqLK1Ein-3" value="" style="ellipse;whiteSpace=wrap;html=1;fontSize=30;dashed=1;" vertex="1" parent="1">
          <mxGeometry x="550" y="366.25" width="270" height="257.5" as="geometry" />
        </mxCell>
        <mxCell id="-irWWOzhihdXzqLK1Ein-4" value="" style="ellipse;whiteSpace=wrap;html=1;fontSize=30;dashed=1;" vertex="1" parent="1">
          <mxGeometry x="130" y="670" width="355" height="200" as="geometry" />
        </mxCell>
        <mxCell id="-irWWOzhihdXzqLK1Ein-5" value="&lt;font style=&quot;font-size: 20px;&quot;&gt;Food&lt;/font&gt;" style="text;html=1;strokeColor=none;fillColor=none;align=center;verticalAlign=middle;whiteSpace=wrap;rounded=0;dashed=1;fontSize=30;" vertex="1" parent="1">
          <mxGeometry x="235" y="380" width="60" height="30" as="geometry" />
        </mxCell>
        <mxCell id="-irWWOzhihdXzqLK1Ein-6" value="&lt;font style=&quot;font-size: 20px;&quot;&gt;C&lt;/font&gt;&lt;font style=&quot;font-size: 20px;&quot;&gt;&lt;span class=&quot;VIiyi&quot; lang=&quot;en&quot;&gt;&lt;span data-number-of-phrases=&quot;1&quot; data-phrase-index=&quot;0&quot; data-language-to-translate-into=&quot;es&quot; data-language-for-alternatives=&quot;en&quot; class=&quot;JLqJ4b ChMk0b&quot;&gt;&lt;span class=&quot;Q4iAWc&quot;&gt;ustomer service&lt;/span&gt;&lt;/span&gt;&lt;/span&gt;&lt;/font&gt;" style="text;html=1;strokeColor=none;fillColor=none;align=center;verticalAlign=middle;whiteSpace=wrap;rounded=0;dashed=1;fontSize=30;" vertex="1" parent="1">
          <mxGeometry x="105" y="700" width="295" height="30" as="geometry" />
        </mxCell>
        <mxCell id="-irWWOzhihdXzqLK1Ein-8" value="&lt;span class=&quot;VIiyi&quot; lang=&quot;en&quot;&gt;&lt;span data-number-of-phrases=&quot;1&quot; data-phrase-index=&quot;0&quot; data-language-to-translate-into=&quot;es&quot; data-language-for-alternatives=&quot;en&quot; class=&quot;JLqJ4b ChMk0b&quot;&gt;&lt;span class=&quot;Q4iAWc&quot;&gt;Kitchen core&lt;br&gt;&lt;/span&gt;&lt;/span&gt;&lt;/span&gt;" style="ellipse;whiteSpace=wrap;html=1;fontSize=20;fillColor=#f8cecc;strokeColor=#b85450;" vertex="1" parent="1">
          <mxGeometry x="260" y="437.5" width="130" height="115" as="geometry" />
        </mxCell>
        <mxCell id="-irWWOzhihdXzqLK1Ein-26" style="edgeStyle=orthogonalEdgeStyle;orthogonalLoop=1;jettySize=auto;html=1;fontSize=20;endArrow=none;endFill=0;curved=1;" edge="1" parent="1" source="-irWWOzhihdXzqLK1Ein-9" target="-irWWOzhihdXzqLK1Ein-8">
          <mxGeometry relative="1" as="geometry">
            <Array as="points">
              <mxPoint x="110" y="805" />
              <mxPoint x="110" y="660" />
              <mxPoint x="320" y="660" />
            </Array>
          </mxGeometry>
        </mxCell>
        <mxCell id="-irWWOzhihdXzqLK1Ein-9" value="Local&lt;font style=&quot;font-size: 20px;&quot;&gt;&lt;span class=&quot;VIiyi&quot; lang=&quot;en&quot;&gt;&lt;span data-number-of-phrases=&quot;1&quot; data-phrase-index=&quot;0&quot; data-language-to-translate-into=&quot;es&quot; data-language-for-alternatives=&quot;en&quot; class=&quot;JLqJ4b ChMk0b&quot;&gt;&lt;span class=&quot;Q4iAWc&quot;&gt; service&lt;/span&gt;&lt;/span&gt;&lt;/span&gt;&lt;/font&gt;" style="ellipse;whiteSpace=wrap;html=1;fontSize=20;" vertex="1" parent="1">
          <mxGeometry x="200" y="740" width="120" height="90" as="geometry" />
        </mxCell>
        <mxCell id="-irWWOzhihdXzqLK1Ein-34" style="edgeStyle=orthogonalEdgeStyle;curved=1;orthogonalLoop=1;jettySize=auto;html=1;entryX=1;entryY=0.5;entryDx=0;entryDy=0;fontSize=20;endArrow=none;endFill=0;" edge="1" parent="1" source="-irWWOzhihdXzqLK1Ein-10" target="-irWWOzhihdXzqLK1Ein-25">
          <mxGeometry relative="1" as="geometry" />
        </mxCell>
        <mxCell id="-irWWOzhihdXzqLK1Ein-35" style="edgeStyle=orthogonalEdgeStyle;curved=1;orthogonalLoop=1;jettySize=auto;html=1;fontSize=20;endArrow=none;endFill=0;" edge="1" parent="1" source="-irWWOzhihdXzqLK1Ein-10" target="-irWWOzhihdXzqLK1Ein-9">
          <mxGeometry relative="1" as="geometry">
            <Array as="points">
              <mxPoint x="677" y="630" />
              <mxPoint x="260" y="630" />
            </Array>
          </mxGeometry>
        </mxCell>
        <mxCell id="-irWWOzhihdXzqLK1Ein-10" value="Adds" style="ellipse;whiteSpace=wrap;html=1;fontSize=20;" vertex="1" parent="1">
          <mxGeometry x="625" y="460" width="105" height="100" as="geometry" />
        </mxCell>
        <mxCell id="-irWWOzhihdXzqLK1Ein-11" value="&lt;font style=&quot;font-size: 20px;&quot;&gt;Marketing&lt;/font&gt;" style="text;html=1;strokeColor=none;fillColor=none;align=center;verticalAlign=middle;whiteSpace=wrap;rounded=0;dashed=1;fontSize=30;" vertex="1" parent="1">
          <mxGeometry x="625" y="390" width="120" height="20" as="geometry" />
        </mxCell>
        <mxCell id="-irWWOzhihdXzqLK1Ein-13" value="" style="ellipse;whiteSpace=wrap;html=1;fontSize=30;dashed=1;" vertex="1" parent="1">
          <mxGeometry x="570" y="640" width="305" height="240" as="geometry" />
        </mxCell>
        <mxCell id="-irWWOzhihdXzqLK1Ein-30" style="edgeStyle=orthogonalEdgeStyle;curved=1;orthogonalLoop=1;jettySize=auto;html=1;fontSize=20;endArrow=none;endFill=0;" edge="1" parent="1" source="-irWWOzhihdXzqLK1Ein-15" target="-irWWOzhihdXzqLK1Ein-9">
          <mxGeometry relative="1" as="geometry">
            <Array as="points">
              <mxPoint x="580" y="755" />
              <mxPoint x="580" y="960" />
              <mxPoint x="250" y="960" />
            </Array>
          </mxGeometry>
        </mxCell>
        <mxCell id="-irWWOzhihdXzqLK1Ein-31" style="edgeStyle=orthogonalEdgeStyle;curved=1;orthogonalLoop=1;jettySize=auto;html=1;fontSize=20;endArrow=none;endFill=0;" edge="1" parent="1" source="-irWWOzhihdXzqLK1Ein-15" target="-irWWOzhihdXzqLK1Ein-25">
          <mxGeometry relative="1" as="geometry">
            <Array as="points">
              <mxPoint x="560" y="755" />
              <mxPoint x="560" y="900" />
              <mxPoint x="390" y="900" />
            </Array>
          </mxGeometry>
        </mxCell>
        <mxCell id="-irWWOzhihdXzqLK1Ein-33" style="edgeStyle=orthogonalEdgeStyle;curved=1;orthogonalLoop=1;jettySize=auto;html=1;entryX=0.959;entryY=0.705;entryDx=0;entryDy=0;entryPerimeter=0;fontSize=20;endArrow=none;endFill=0;" edge="1" parent="1" source="-irWWOzhihdXzqLK1Ein-15" target="-irWWOzhihdXzqLK1Ein-8">
          <mxGeometry relative="1" as="geometry" />
        </mxCell>
        <mxCell id="-irWWOzhihdXzqLK1Ein-15" value="Adminitration" style="ellipse;whiteSpace=wrap;html=1;fontSize=20;" vertex="1" parent="1">
          <mxGeometry x="680" y="710" width="140" height="90" as="geometry" />
        </mxCell>
        <mxCell id="-irWWOzhihdXzqLK1Ein-19" value="&lt;font style=&quot;font-size: 20px;&quot;&gt;Human Resources&lt;br&gt;&lt;/font&gt;" style="text;html=1;strokeColor=none;fillColor=none;align=center;verticalAlign=middle;whiteSpace=wrap;rounded=0;dashed=1;fontSize=30;" vertex="1" parent="1">
          <mxGeometry x="617.5" y="800" width="210" height="20" as="geometry" />
        </mxCell>
        <mxCell id="-irWWOzhihdXzqLK1Ein-21" value="Stock" style="ellipse;whiteSpace=wrap;html=1;fontSize=20;" vertex="1" parent="1">
          <mxGeometry x="247.5" y="1070" width="120" height="90" as="geometry" />
        </mxCell>
        <mxCell id="-irWWOzhihdXzqLK1Ein-22" value="cook(chef)" style="ellipse;whiteSpace=wrap;html=1;fontSize=20;" vertex="1" parent="1">
          <mxGeometry x="100" y="1080" width="120" height="90" as="geometry" />
        </mxCell>
        <mxCell id="-irWWOzhihdXzqLK1Ein-24" value="Recipe" style="ellipse;whiteSpace=wrap;html=1;fontSize=20;" vertex="1" parent="1">
          <mxGeometry x="367.5" y="1080" width="120" height="90" as="geometry" />
        </mxCell>
        <mxCell id="-irWWOzhihdXzqLK1Ein-27" style="edgeStyle=orthogonalEdgeStyle;curved=1;orthogonalLoop=1;jettySize=auto;html=1;entryX=1;entryY=1;entryDx=0;entryDy=0;fontSize=20;endArrow=none;endFill=0;" edge="1" parent="1" source="-irWWOzhihdXzqLK1Ein-25" target="-irWWOzhihdXzqLK1Ein-8">
          <mxGeometry relative="1" as="geometry" />
        </mxCell>
        <mxCell id="-irWWOzhihdXzqLK1Ein-25" value="Online &lt;font style=&quot;font-size: 20px;&quot;&gt;&lt;span class=&quot;VIiyi&quot; lang=&quot;en&quot;&gt;&lt;span data-number-of-phrases=&quot;1&quot; data-phrase-index=&quot;0&quot; data-language-to-translate-into=&quot;es&quot; data-language-for-alternatives=&quot;en&quot; class=&quot;JLqJ4b ChMk0b&quot;&gt;&lt;span class=&quot;Q4iAWc&quot;&gt;service&lt;/span&gt;&lt;/span&gt;&lt;/span&gt;&lt;/font&gt;" style="ellipse;whiteSpace=wrap;html=1;fontSize=20;" vertex="1" parent="1">
          <mxGeometry x="340" y="730" width="120" height="90" as="geometry" />
        </mxCell>
        <mxCell id="-irWWOzhihdXzqLK1Ein-36" value="&lt;span class=&quot;VIiyi&quot; lang=&quot;en&quot;&gt;&lt;span data-number-of-phrases=&quot;1&quot; data-phrase-index=&quot;0&quot; data-language-to-translate-into=&quot;es&quot; data-language-for-alternatives=&quot;en&quot; class=&quot;JLqJ4b ChMk0b&quot;&gt;&lt;span class=&quot;Q4iAWc&quot;&gt;Kitchen &lt;/span&gt;&lt;/span&gt;&lt;/span&gt;" style="text;html=1;align=center;verticalAlign=middle;resizable=0;points=[];autosize=1;strokeColor=none;fillColor=none;fontSize=20;" vertex="1" parent="1">
          <mxGeometry x="90" y="1000" width="90" height="40" as="geometry" />
        </mxCell>
        <mxCell id="-irWWOzhihdXzqLK1Ein-38" value="" style="rounded=1;whiteSpace=wrap;html=1;fontSize=20;" vertex="1" parent="1">
          <mxGeometry x="690" y="1040" width="560" height="390" as="geometry" />
        </mxCell>
        <mxCell id="-irWWOzhihdXzqLK1Ein-39" value="Local &lt;font style=&quot;font-size: 20px;&quot;&gt;&lt;span class=&quot;VIiyi&quot; lang=&quot;en&quot;&gt;&lt;span data-number-of-phrases=&quot;1&quot; data-phrase-index=&quot;0&quot; data-language-to-translate-into=&quot;es&quot; data-language-for-alternatives=&quot;en&quot; class=&quot;JLqJ4b ChMk0b&quot;&gt;&lt;span class=&quot;Q4iAWc&quot;&gt;service&lt;/span&gt;&lt;/span&gt;&lt;/span&gt;&lt;/font&gt;" style="text;html=1;align=center;verticalAlign=middle;resizable=0;points=[];autosize=1;strokeColor=none;fillColor=none;fontSize=20;" vertex="1" parent="1">
          <mxGeometry x="690" y="990" width="140" height="40" as="geometry" />
        </mxCell>
        <mxCell id="-irWWOzhihdXzqLK1Ein-40" value="" style="rounded=1;whiteSpace=wrap;html=1;fontSize=20;" vertex="1" parent="1">
          <mxGeometry x="1280" y="1040" width="560" height="390" as="geometry" />
        </mxCell>
        <mxCell id="-irWWOzhihdXzqLK1Ein-41" value="Online &lt;font style=&quot;font-size: 20px;&quot;&gt;&lt;span class=&quot;VIiyi&quot; lang=&quot;en&quot;&gt;&lt;span data-number-of-phrases=&quot;1&quot; data-phrase-index=&quot;0&quot; data-language-to-translate-into=&quot;es&quot; data-language-for-alternatives=&quot;en&quot; class=&quot;JLqJ4b ChMk0b&quot;&gt;&lt;span class=&quot;Q4iAWc&quot;&gt;service&lt;/span&gt;&lt;/span&gt;&lt;/span&gt;&lt;/font&gt;" style="text;html=1;align=center;verticalAlign=middle;resizable=0;points=[];autosize=1;strokeColor=none;fillColor=none;fontSize=20;" vertex="1" parent="1">
          <mxGeometry x="1300" y="990" width="150" height="40" as="geometry" />
        </mxCell>
        <mxCell id="-irWWOzhihdXzqLK1Ein-42" value="Adds" style="text;html=1;align=center;verticalAlign=middle;resizable=0;points=[];autosize=1;strokeColor=none;fillColor=none;fontSize=20;" vertex="1" parent="1">
          <mxGeometry x="90" y="1470" width="70" height="40" as="geometry" />
        </mxCell>
        <mxCell id="-irWWOzhihdXzqLK1Ein-43" value="" style="rounded=1;whiteSpace=wrap;html=1;fontSize=20;" vertex="1" parent="1">
          <mxGeometry x="80" y="1520" width="560" height="390" as="geometry" />
        </mxCell>
        <mxCell id="-irWWOzhihdXzqLK1Ein-44" value="Adminitration" style="text;html=1;align=center;verticalAlign=middle;resizable=0;points=[];autosize=1;strokeColor=none;fillColor=none;fontSize=20;" vertex="1" parent="1">
          <mxGeometry x="715" y="1470" width="140" height="40" as="geometry" />
        </mxCell>
        <mxCell id="-irWWOzhihdXzqLK1Ein-45" value="" style="rounded=1;whiteSpace=wrap;html=1;fontSize=20;" vertex="1" parent="1">
          <mxGeometry x="715" y="1520" width="560" height="390" as="geometry" />
        </mxCell>
      </root>
    </mxGraphModel>
  </diagram>
  <diagram id="92EMf9NmiPNLdvf561jD" name="Modelo de dominio">
    <mxGraphModel dx="1422" dy="792" grid="1" gridSize="10" guides="1" tooltips="1" connect="1" arrows="1" fold="1" page="1" pageScale="1" pageWidth="850" pageHeight="1100" math="0" shadow="0">
      <root>
        <mxCell id="0" />
        <mxCell id="1" parent="0" />
      </root>
    </mxGraphModel>
  </diagram>
  <diagram id="ce15cj5fZXZKw39M88a2" name="Eventos de dominios">
    <mxGraphModel dx="1422" dy="792" grid="1" gridSize="10" guides="1" tooltips="1" connect="1" arrows="1" fold="1" page="1" pageScale="1" pageWidth="850" pageHeight="1100" math="0" shadow="0">
      <root>
        <mxCell id="0" />
        <mxCell id="1" parent="0" />
      </root>
    </mxGraphModel>
  </diagram>
</mxfile>
